<svg width="140" height="140" viewBox="0 0 140 140" fill="none" xmlns="http://www.w3.org/2000/svg">
<circle cx="70" cy="70" r="70" fill="#479DEC"/>
<g clip-path="url(#clip0_262_61)">
<path d="M102.889 55.0604C102.888 53.8027 102.622 52.6914 102.083 51.7376C101.554 50.7997 100.762 50.0135 99.6995 49.392C90.9274 44.2834 82.1468 39.1904 73.3776 34.0766C71.0135 32.6981 68.7213 32.7483 66.3746 34.1466C62.8831 36.2264 45.4021 46.3418 40.193 49.3891C38.0478 50.6434 37.0039 52.563 37.0034 55.0581C37 65.3318 37.0034 75.6052 37 85.8792C37.0005 87.1093 37.2555 88.199 37.7703 89.1385C38.2996 90.1048 39.103 90.9126 40.1902 91.5482C45.3995 94.5955 62.8828 104.71 66.3736 106.79C68.7212 108.189 71.0135 108.239 73.3784 106.86C82.1479 101.746 90.929 96.6537 99.7023 91.5451C100.79 90.9097 101.593 90.1015 102.122 89.1359C102.636 88.1964 102.892 87.1067 102.892 85.8764C102.892 85.8764 102.892 65.3344 102.889 55.0604Z" fill="#232E39"/>
<path d="M70.0469 70.3682L37.7703 89.1382C38.2996 90.1045 39.103 90.9122 40.1902 91.5478C45.3995 94.5952 62.8828 104.71 66.3736 106.79C68.7212 108.189 71.0134 108.239 73.3784 106.86C82.1478 101.746 90.9289 96.6533 99.7023 91.5447C100.789 90.9093 101.593 90.1011 102.122 89.1356L70.0469 70.3682Z" fill="black"/>
<path d="M60.487 75.928C62.3652 79.2397 65.8959 81.4733 69.9461 81.4733C74.0214 81.4733 77.5722 79.2113 79.4409 75.8642L70.0469 70.3682L60.487 75.928Z" fill="black"/>
<path d="M102.889 55.0601C102.888 53.8025 102.622 52.6911 102.083 51.7373L70.0469 70.3683L102.122 89.1356C102.636 88.1962 102.892 87.1064 102.892 85.8761C102.892 85.8761 102.892 65.3341 102.889 55.0601Z" fill="#2F363C"/>
<path d="M79.4408 75.8646C77.5722 79.2117 74.0214 81.4737 69.9461 81.4737C65.8959 81.4737 62.3651 79.2401 60.487 75.9284C59.5435 74.2667 59.048 72.3841 59.0499 70.4686C59.0499 64.3908 63.9285 59.4637 69.9461 59.4637C73.9703 59.4637 77.4825 61.6694 79.3699 64.9472L88.8938 59.4082C85.1083 52.8083 78.0409 48.3682 69.9461 48.3682C57.8609 48.3682 48.0643 58.263 48.0643 70.4686C48.0643 74.4728 49.119 78.2279 50.9623 81.4669C54.7383 88.1017 61.8258 92.5692 69.9461 92.5692C78.0814 92.5692 85.18 88.0837 88.9505 81.4294L79.4408 75.8646Z" fill="white"/>
</g>
<defs>
<clipPath id="clip0_262_61">
<rect width="66" height="75" fill="white" transform="translate(37 33)"/>
</clipPath>
</defs>
</svg>
