<svg width="140" height="16" viewBox="0 0 140 16" fill="none" xmlns="http://www.w3.org/2000/svg">
<path d="M2.906 16C2.402 16 1.94 15.881 1.52 15.643C1.114 15.391 0.785 15.062 0.533 14.656C0.295 14.236 0.176 13.774 0.176 13.27V3.61C0.176 3.106 0.295 2.651 0.533 2.245C0.785 1.825 1.114 1.496 1.52 1.258C1.94 1.006 2.402 0.879999 2.906 0.879999H15.254V3.148H3.221C2.997 3.148 2.808 3.225 2.654 3.379C2.514 3.519 2.444 3.701 2.444 3.925V12.955C2.444 13.179 2.514 13.368 2.654 13.522C2.808 13.662 2.997 13.732 3.221 13.732H15.254V16H2.906ZM20.1316 16C19.6276 16 19.1656 15.881 18.7456 15.643C18.3396 15.391 18.0106 15.062 17.7586 14.656C17.5206 14.236 17.4016 13.774 17.4016 13.27V3.61C17.4016 3.106 17.5206 2.651 17.7586 2.245C18.0106 1.825 18.3396 1.496 18.7456 1.258C19.1656 1.006 19.6276 0.879999 20.1316 0.879999H29.7916C30.2816 0.879999 30.7366 1.006 31.1566 1.258C31.5766 1.496 31.9056 1.825 32.1436 2.245C32.3956 2.651 32.5216 3.106 32.5216 3.61V13.27C32.5216 13.774 32.3956 14.236 32.1436 14.656C31.9056 15.062 31.5766 15.391 31.1566 15.643C30.7366 15.881 30.2816 16 29.7916 16H20.1316ZM20.1946 13.732H29.7286C29.8686 13.732 29.9876 13.683 30.0856 13.585C30.1836 13.473 30.2326 13.347 30.2326 13.207V3.673C30.2326 3.533 30.1836 3.414 30.0856 3.316C29.9876 3.204 29.8686 3.148 29.7286 3.148H20.1946C20.0546 3.148 19.9286 3.204 19.8166 3.316C19.7186 3.414 19.6696 3.533 19.6696 3.673V13.207C19.6696 13.347 19.7186 13.473 19.8166 13.585C19.9286 13.683 20.0546 13.732 20.1946 13.732ZM34.8762 16V0.879999H47.2452C47.7492 0.879999 48.2112 1.006 48.6312 1.258C49.0512 1.496 49.3802 1.825 49.6182 2.245C49.8702 2.651 49.9962 3.106 49.9962 3.61V13.27C49.9962 13.774 49.8702 14.236 49.6182 14.656C49.3802 15.062 49.0512 15.391 48.6312 15.643C48.2112 15.881 47.7492 16 47.2452 16H34.8762ZM37.6482 13.732H47.2032C47.3432 13.732 47.4622 13.683 47.5602 13.585C47.6582 13.473 47.7072 13.347 47.7072 13.207V3.673C47.7072 3.533 47.6582 3.414 47.5602 3.316C47.4622 3.204 47.3432 3.148 47.2032 3.148H37.6482C37.5082 3.148 37.3892 3.204 37.2912 3.316C37.1932 3.414 37.1442 3.533 37.1442 3.673V13.207C37.1442 13.347 37.1932 13.473 37.2912 13.585C37.3892 13.683 37.5082 13.732 37.6482 13.732ZM52.3899 16V0.879999H66.2499V3.148H54.6789V7.306H63.9819V9.574H54.6789V13.732H66.2499V16H52.3899ZM68.468 16V0.879999H82.328V3.148H70.757V7.306H80.06V9.574H70.757V16H68.468ZM83.6228 16V0.859H85.8908V13.732H98.7428V16H83.6228ZM102.655 16C102.151 16 101.689 15.881 101.269 15.643C100.863 15.391 100.534 15.062 100.282 14.656C100.044 14.236 99.925 13.774 99.925 13.27V3.61C99.925 3.106 100.044 2.651 100.282 2.245C100.534 1.825 100.863 1.496 101.269 1.258C101.689 1.006 102.151 0.879999 102.655 0.879999H112.315C112.805 0.879999 113.26 1.006 113.68 1.258C114.1 1.496 114.429 1.825 114.667 2.245C114.919 2.651 115.045 3.106 115.045 3.61V13.27C115.045 13.774 114.919 14.236 114.667 14.656C114.429 15.062 114.1 15.391 113.68 15.643C113.26 15.881 112.805 16 112.315 16H102.655ZM102.718 13.732H112.252C112.392 13.732 112.511 13.683 112.609 13.585C112.707 13.473 112.756 13.347 112.756 13.207V3.673C112.756 3.533 112.707 3.414 112.609 3.316C112.511 3.204 112.392 3.148 112.252 3.148H102.718C102.578 3.148 102.452 3.204 102.34 3.316C102.242 3.414 102.193 3.533 102.193 3.673V13.207C102.193 13.347 102.242 13.473 102.34 13.585C102.452 13.683 102.578 13.732 102.718 13.732ZM121.783 16L116.281 0.879999H118.696L122.707 11.884L126.718 0.879999H129.112L133.144 11.884L137.134 0.879999H139.57L134.068 16H132.199L127.915 4.24L123.631 16H121.783Z" fill="url(#paint0_linear_239_3)"/>
<defs>
<linearGradient id="paint0_linear_239_3" x1="-1" y1="8" x2="141" y2="8" gradientUnits="userSpaceOnUse">
<stop stop-color="#A8FF53"/>
<stop offset="0.5" stop-color="#7DACCF"/>
<stop offset="1" stop-color="#383CAE"/>
</linearGradient>
</defs>
</svg>
