<svg width="270" height="69" viewBox="0 0 270 69" fill="none" xmlns="http://www.w3.org/2000/svg">
<path d="M7.44 40C6.48 40 5.6 39.7733 4.8 39.32C4.02667 38.84 3.4 38.2133 2.92 37.44C2.46667 36.64 2.24 35.76 2.24 34.8V16.4C2.24 15.44 2.46667 14.5733 2.92 13.8C3.4 13 4.02667 12.3733 4.8 11.92C5.6 11.44 6.48 11.2 7.44 11.2H30.96V15.52H8.04C7.61333 15.52 7.25333 15.6667 6.96 15.96C6.69333 16.2267 6.56 16.5733 6.56 17V34.2C6.56 34.6267 6.69333 34.9867 6.96 35.28C7.25333 35.5467 7.61333 35.68 8.04 35.68H30.96V40H7.44ZM40.2506 40C39.2906 40 38.4106 39.7733 37.6106 39.32C36.8373 38.84 36.2106 38.2133 35.7306 37.44C35.2773 36.64 35.0506 35.76 35.0506 34.8V16.4C35.0506 15.44 35.2773 14.5733 35.7306 13.8C36.2106 13 36.8373 12.3733 37.6106 11.92C38.4106 11.44 39.2906 11.2 40.2506 11.2H58.6506C59.584 11.2 60.4506 11.44 61.2506 11.92C62.0506 12.3733 62.6773 13 63.1306 13.8C63.6106 14.5733 63.8506 15.44 63.8506 16.4V34.8C63.8506 35.76 63.6106 36.64 63.1306 37.44C62.6773 38.2133 62.0506 38.84 61.2506 39.32C60.4506 39.7733 59.584 40 58.6506 40H40.2506ZM40.3706 35.68H58.5306C58.7973 35.68 59.024 35.5867 59.2106 35.4C59.3973 35.1867 59.4906 34.9467 59.4906 34.68V16.52C59.4906 16.2533 59.3973 16.0267 59.2106 15.84C59.024 15.6267 58.7973 15.52 58.5306 15.52H40.3706C40.104 15.52 39.864 15.6267 39.6506 15.84C39.464 16.0267 39.3706 16.2533 39.3706 16.52V34.68C39.3706 34.9467 39.464 35.1867 39.6506 35.4C39.864 35.5867 40.104 35.68 40.3706 35.68ZM68.3356 40V11.2H91.8956C92.8556 11.2 93.7356 11.44 94.5356 11.92C95.3356 12.3733 95.9623 13 96.4156 13.8C96.8956 14.5733 97.1356 15.44 97.1356 16.4V34.8C97.1356 35.76 96.8956 36.64 96.4156 37.44C95.9623 38.2133 95.3356 38.84 94.5356 39.32C93.7356 39.7733 92.8556 40 91.8956 40H68.3356ZM73.6156 35.68H91.8156C92.0823 35.68 92.309 35.5867 92.4956 35.4C92.6823 35.1867 92.7756 34.9467 92.7756 34.68V16.52C92.7756 16.2533 92.6823 16.0267 92.4956 15.84C92.309 15.6267 92.0823 15.52 91.8156 15.52H73.6156C73.349 15.52 73.1223 15.6267 72.9356 15.84C72.749 16.0267 72.6556 16.2533 72.6556 16.52V34.68C72.6556 34.9467 72.749 35.1867 72.9356 35.4C73.1223 35.5867 73.349 35.68 73.6156 35.68ZM101.695 40V11.2H128.095V15.52H106.055V23.44H123.775V27.76H106.055V35.68H128.095V40H101.695ZM132.32 40V11.2H158.72V15.52H136.68V23.44H154.4V27.76H136.68V40H132.32ZM161.186 40V11.16H165.506V35.68H189.986V40H161.186ZM197.438 40C196.478 40 195.598 39.7733 194.798 39.32C194.025 38.84 193.398 38.2133 192.918 37.44C192.465 36.64 192.238 35.76 192.238 34.8V16.4C192.238 15.44 192.465 14.5733 192.918 13.8C193.398 13 194.025 12.3733 194.798 11.92C195.598 11.44 196.478 11.2 197.438 11.2H215.838C216.771 11.2 217.638 11.44 218.438 11.92C219.238 12.3733 219.865 13 220.318 13.8C220.798 14.5733 221.038 15.44 221.038 16.4V34.8C221.038 35.76 220.798 36.64 220.318 37.44C219.865 38.2133 219.238 38.84 218.438 39.32C217.638 39.7733 216.771 40 215.838 40H197.438ZM197.558 35.68H215.718C215.985 35.68 216.211 35.5867 216.398 35.4C216.585 35.1867 216.678 34.9467 216.678 34.68V16.52C216.678 16.2533 216.585 16.0267 216.398 15.84C216.211 15.6267 215.985 15.52 215.718 15.52H197.558C197.291 15.52 197.051 15.6267 196.838 15.84C196.651 16.0267 196.558 16.2533 196.558 16.52V34.68C196.558 34.9467 196.651 35.1867 196.838 35.4C197.051 35.5867 197.291 35.68 197.558 35.68ZM233.872 40L223.392 11.2H227.992L235.632 32.16L243.272 11.2H247.832L255.512 32.16L263.112 11.2H267.752L257.272 40H253.712L245.552 17.6L237.392 40H233.872Z" fill="url(#paint0_linear_265_128)"/>
<path d="M175.142 68.2727V56.2727H176.801V57.6875H176.943C177.042 57.5057 177.184 57.2955 177.369 57.0568C177.555 56.8182 177.813 56.6098 178.142 56.4318C178.472 56.25 178.907 56.1591 179.449 56.1591C180.153 56.1591 180.782 56.3371 181.335 56.6932C181.888 57.0492 182.322 57.5625 182.636 58.233C182.955 58.9034 183.114 59.7102 183.114 60.6534C183.114 61.5966 182.956 62.4053 182.642 63.0795C182.328 63.75 181.896 64.267 181.347 64.6307C180.797 64.9905 180.17 65.1705 179.466 65.1705C178.936 65.1705 178.502 65.0814 178.165 64.9034C177.831 64.7254 177.57 64.517 177.381 64.2784C177.191 64.0398 177.045 63.8277 176.943 63.642H176.841V68.2727H175.142ZM176.807 60.6364C176.807 61.25 176.896 61.7879 177.074 62.25C177.252 62.7121 177.509 63.0739 177.847 63.3352C178.184 63.5928 178.597 63.7216 179.085 63.7216C179.593 63.7216 180.017 63.5871 180.358 63.3182C180.699 63.0455 180.956 62.6761 181.131 62.2102C181.309 61.7443 181.398 61.2197 181.398 60.6364C181.398 60.0606 181.311 59.5436 181.136 59.0852C180.966 58.6269 180.708 58.2652 180.364 58C180.023 57.7348 179.597 57.6023 179.085 57.6023C178.593 57.6023 178.176 57.7292 177.835 57.983C177.498 58.2367 177.242 58.5909 177.068 59.0455C176.894 59.5 176.807 60.0303 176.807 60.6364ZM188.693 65.1761C187.875 65.1761 187.161 64.9886 186.551 64.6136C185.941 64.2386 185.468 63.714 185.131 63.0398C184.794 62.3655 184.625 61.5777 184.625 60.6761C184.625 59.7708 184.794 58.9792 185.131 58.3011C185.468 57.6231 185.941 57.0966 186.551 56.7216C187.161 56.3466 187.875 56.1591 188.693 56.1591C189.511 56.1591 190.225 56.3466 190.835 56.7216C191.445 57.0966 191.919 57.6231 192.256 58.3011C192.593 58.9792 192.761 59.7708 192.761 60.6761C192.761 61.5777 192.593 62.3655 192.256 63.0398C191.919 63.714 191.445 64.2386 190.835 64.6136C190.225 64.9886 189.511 65.1761 188.693 65.1761ZM188.699 63.75C189.229 63.75 189.669 63.6098 190.017 63.3295C190.366 63.0492 190.623 62.6761 190.79 62.2102C190.96 61.7443 191.045 61.2311 191.045 60.6705C191.045 60.1136 190.96 59.6023 190.79 59.1364C190.623 58.6667 190.366 58.2898 190.017 58.0057C189.669 57.7216 189.229 57.5795 188.699 57.5795C188.165 57.5795 187.722 57.7216 187.369 58.0057C187.021 58.2898 186.761 58.6667 186.591 59.1364C186.424 59.6023 186.341 60.1136 186.341 60.6705C186.341 61.2311 186.424 61.7443 186.591 62.2102C186.761 62.6761 187.021 63.0492 187.369 63.3295C187.722 63.6098 188.165 63.75 188.699 63.75ZM196.284 65L193.716 56.2727H195.472L197.182 62.6818H197.267L198.983 56.2727H200.739L202.443 62.6534H202.528L204.227 56.2727H205.983L203.42 65H201.688L199.915 58.6989H199.784L198.011 65H196.284ZM211.091 65.1761C210.231 65.1761 209.491 64.9924 208.869 64.625C208.252 64.2538 207.775 63.733 207.438 63.0625C207.104 62.3883 206.938 61.5985 206.938 60.6932C206.938 59.7992 207.104 59.0114 207.438 58.3295C207.775 57.6477 208.244 57.1155 208.847 56.733C209.453 56.3504 210.161 56.1591 210.972 56.1591C211.464 56.1591 211.941 56.2405 212.403 56.4034C212.866 56.5663 213.28 56.822 213.648 57.1705C214.015 57.5189 214.305 57.9716 214.517 58.5284C214.729 59.0814 214.835 59.7538 214.835 60.5455V61.1477H207.898V59.875H213.17C213.17 59.428 213.08 59.0322 212.898 58.6875C212.716 58.339 212.46 58.0644 212.131 57.8636C211.805 57.6629 211.422 57.5625 210.983 57.5625C210.506 57.5625 210.089 57.6799 209.733 57.9148C209.381 58.1458 209.108 58.4489 208.915 58.8239C208.725 59.1951 208.631 59.5985 208.631 60.0341V61.0284C208.631 61.6117 208.733 62.108 208.938 62.517C209.146 62.9261 209.436 63.2386 209.807 63.4545C210.178 63.6667 210.612 63.7727 211.108 63.7727C211.43 63.7727 211.723 63.7273 211.989 63.6364C212.254 63.5417 212.483 63.4015 212.676 63.2159C212.869 63.0303 213.017 62.8011 213.119 62.5284L214.727 62.8182C214.598 63.2917 214.367 63.7064 214.034 64.0625C213.705 64.4148 213.29 64.6894 212.79 64.8864C212.294 65.0795 211.727 65.1761 211.091 65.1761ZM216.72 65V56.2727H218.362V57.6591H218.453C218.612 57.1894 218.893 56.8201 219.294 56.5511C219.699 56.2784 220.158 56.142 220.669 56.142C220.775 56.142 220.9 56.1458 221.044 56.1534C221.192 56.161 221.307 56.1705 221.391 56.1818V57.8068C221.322 57.7879 221.201 57.767 221.027 57.7443C220.853 57.7178 220.679 57.7045 220.504 57.7045C220.103 57.7045 219.745 57.7898 219.43 57.9602C219.12 58.1269 218.874 58.3598 218.692 58.6591C218.51 58.9545 218.419 59.2917 218.419 59.6705V65H216.72ZM226.31 65.1761C225.45 65.1761 224.709 64.9924 224.088 64.625C223.471 64.2538 222.993 63.733 222.656 63.0625C222.323 62.3883 222.156 61.5985 222.156 60.6932C222.156 59.7992 222.323 59.0114 222.656 58.3295C222.993 57.6477 223.463 57.1155 224.065 56.733C224.671 56.3504 225.38 56.1591 226.19 56.1591C226.683 56.1591 227.16 56.2405 227.622 56.4034C228.084 56.5663 228.499 56.822 228.866 57.1705C229.234 57.5189 229.524 57.9716 229.736 58.5284C229.948 59.0814 230.054 59.7538 230.054 60.5455V61.1477H223.116V59.875H228.389C228.389 59.428 228.298 59.0322 228.116 58.6875C227.935 58.339 227.679 58.0644 227.349 57.8636C227.024 57.6629 226.641 57.5625 226.202 57.5625C225.724 57.5625 225.308 57.6799 224.952 57.9148C224.599 58.1458 224.327 58.4489 224.134 58.8239C223.944 59.1951 223.849 59.5985 223.849 60.0341V61.0284C223.849 61.6117 223.952 62.108 224.156 62.517C224.365 62.9261 224.654 63.2386 225.026 63.4545C225.397 63.6667 225.83 63.7727 226.327 63.7727C226.649 63.7727 226.942 63.7273 227.207 63.6364C227.473 63.5417 227.702 63.4015 227.895 63.2159C228.088 63.0303 228.236 62.8011 228.338 62.5284L229.946 62.8182C229.817 63.2917 229.586 63.7064 229.253 64.0625C228.923 64.4148 228.509 64.6894 228.009 64.8864C227.512 65.0795 226.946 65.1761 226.31 65.1761ZM235.206 65.1705C234.501 65.1705 233.873 64.9905 233.32 64.6307C232.77 64.267 232.339 63.75 232.024 63.0795C231.714 62.4053 231.558 61.5966 231.558 60.6534C231.558 59.7102 231.715 58.9034 232.03 58.233C232.348 57.5625 232.784 57.0492 233.337 56.6932C233.89 56.3371 234.517 56.1591 235.217 56.1591C235.759 56.1591 236.195 56.25 236.524 56.4318C236.857 56.6098 237.115 56.8182 237.297 57.0568C237.482 57.2955 237.626 57.5057 237.729 57.6875H237.831V53.3636H239.53V65H237.871V63.642H237.729C237.626 63.8277 237.479 64.0398 237.286 64.2784C237.096 64.517 236.835 64.7254 236.501 64.9034C236.168 65.0814 235.736 65.1705 235.206 65.1705ZM235.581 63.7216C236.07 63.7216 236.482 63.5928 236.82 63.3352C237.161 63.0739 237.418 62.7121 237.592 62.25C237.77 61.7879 237.859 61.25 237.859 60.6364C237.859 60.0303 237.772 59.5 237.598 59.0455C237.424 58.5909 237.168 58.2367 236.831 57.983C236.494 57.7292 236.077 57.6023 235.581 57.6023C235.07 57.6023 234.643 57.7348 234.303 58C233.962 58.2652 233.704 58.6269 233.53 59.0852C233.359 59.5436 233.274 60.0606 233.274 60.6364C233.274 61.2197 233.361 61.7443 233.536 62.2102C233.71 62.6761 233.967 63.0455 234.308 63.3182C234.653 63.5871 235.077 63.7216 235.581 63.7216ZM246.325 65V53.3636H248.024V57.6875H248.126C248.225 57.5057 248.367 57.2955 248.553 57.0568C248.738 56.8182 248.996 56.6098 249.325 56.4318C249.655 56.25 250.09 56.1591 250.632 56.1591C251.337 56.1591 251.965 56.3371 252.518 56.6932C253.071 57.0492 253.505 57.5625 253.82 58.233C254.138 58.9034 254.297 59.7102 254.297 60.6534C254.297 61.5966 254.14 62.4053 253.825 63.0795C253.511 63.75 253.079 64.267 252.53 64.6307C251.981 64.9905 251.354 65.1705 250.649 65.1705C250.119 65.1705 249.685 65.0814 249.348 64.9034C249.015 64.7254 248.753 64.517 248.564 64.2784C248.375 64.0398 248.229 63.8277 248.126 63.642H247.984V65H246.325ZM247.99 60.6364C247.99 61.25 248.079 61.7879 248.257 62.25C248.435 62.7121 248.693 63.0739 249.03 63.3352C249.367 63.5928 249.78 63.7216 250.268 63.7216C250.776 63.7216 251.2 63.5871 251.541 63.3182C251.882 63.0455 252.14 62.6761 252.314 62.2102C252.492 61.7443 252.581 61.2197 252.581 60.6364C252.581 60.0606 252.494 59.5436 252.32 59.0852C252.149 58.6269 251.892 58.2652 251.547 58C251.206 57.7348 250.78 57.6023 250.268 57.6023C249.776 57.6023 249.359 57.7292 249.018 57.983C248.681 58.2367 248.426 58.5909 248.251 59.0455C248.077 59.5 247.99 60.0303 247.99 60.6364ZM256.982 68.2727C256.728 68.2727 256.497 68.2519 256.288 68.2102C256.08 68.1723 255.925 68.1307 255.822 68.0852L256.232 66.6932C256.542 66.7765 256.819 66.8125 257.061 66.8011C257.304 66.7898 257.518 66.6989 257.703 66.5284C257.893 66.358 258.059 66.0795 258.203 65.6932L258.413 65.1136L255.22 56.2727H257.038L259.249 63.0455H259.339L261.55 56.2727H263.374L259.777 66.1648C259.61 66.6193 259.398 67.0038 259.141 67.3182C258.883 67.6364 258.576 67.875 258.22 68.0341C257.864 68.1932 257.451 68.2727 256.982 68.2727Z" fill="#A8FF53"/>
<defs>
<linearGradient id="paint0_linear_265_128" x1="0" y1="25" x2="270" y2="25" gradientUnits="userSpaceOnUse">
<stop stop-color="#A8FF53"/>
<stop offset="0.5" stop-color="#7DACCF"/>
<stop offset="1" stop-color="#383CAE"/>
</linearGradient>
</defs>
</svg>
