<svg width="150" height="150" viewBox="0 0 150 150" fill="none" xmlns="http://www.w3.org/2000/svg">
<circle cx="75" cy="75" r="75" fill="#A8FF53"/>
<g clip-path="url(#clip0_260_36)">
<path d="M118.852 54.4136C118.851 52.7367 118.496 51.2549 117.778 49.9831C117.073 48.7326 116.016 47.6844 114.599 46.8557C102.903 40.0442 91.1958 33.2535 79.5035 26.4351C76.3513 24.5971 73.295 24.6641 70.1662 26.5285C65.5108 29.3015 42.2028 42.7887 35.2573 46.8518C32.397 48.5242 31.0052 51.0837 31.0045 54.4105C31 68.1087 31.0045 81.8067 31 95.5053C31.0007 97.1454 31.3407 98.5984 32.0271 99.8511C32.7328 101.139 33.804 102.216 35.2536 103.064C42.1994 107.127 65.5104 120.613 70.1648 123.387C73.295 125.252 76.3513 125.319 79.5045 123.48C91.1972 116.662 102.905 109.871 114.603 103.06C116.053 102.213 117.124 101.135 117.83 99.8476C118.515 98.5949 118.856 97.1419 118.856 95.5015C118.856 95.5015 118.856 68.1122 118.852 54.4136Z" fill="#232E39"/>
<path d="M75.0626 74.8247L32.0271 99.8514C32.7328 101.14 33.804 102.217 35.2536 103.064C42.1994 107.127 65.5104 120.614 70.1648 123.387C73.295 125.253 76.3513 125.319 79.5045 123.481C91.1972 116.662 102.905 109.872 114.603 103.06C116.053 102.213 117.124 101.135 117.83 99.8479L75.0626 74.8247Z" fill="black"/>
<path d="M62.316 82.2379C64.8202 86.6534 69.5279 89.6316 74.9282 89.6316C80.3618 89.6316 85.0963 86.6155 87.5878 82.1528L75.0626 74.8247L62.316 82.2379Z" fill="black"/>
<path d="M118.852 54.4139C118.851 52.7369 118.496 51.2551 117.778 49.9834L75.0626 74.8247L117.83 99.8479C118.515 98.5952 118.856 97.1422 118.856 95.5018C118.856 95.5018 118.856 68.1125 118.852 54.4139Z" fill="#2F363C"/>
<path d="M116.5 76.6132H113.158V79.9892H109.816V76.6132H106.474V73.2382H109.816V69.8628H113.158V73.2382H116.5V76.6132ZM104.306 76.6132H100.964V79.9892H97.6222V76.6132H94.2802V73.2382H97.6222V69.8628H100.964V73.2382H104.306V76.6132Z" fill="white"/>
<path d="M87.5878 82.1527C85.0963 86.6154 80.3618 89.6314 74.9282 89.6314C69.5279 89.6314 64.8202 86.6533 62.316 82.2377C61.058 80.0221 60.3973 77.512 60.3999 74.9579C60.3999 66.8542 66.9047 60.2847 74.9282 60.2847C80.2938 60.2847 84.9767 63.2258 87.4933 67.5962L100.192 60.2108C95.1444 51.411 85.7212 45.4907 74.9282 45.4907C58.8145 45.4907 45.7524 58.6838 45.7524 74.9579C45.7524 80.297 47.1587 85.3038 49.6165 89.6224C54.651 98.4688 64.1011 104.425 74.9282 104.425C85.7752 104.425 95.24 98.4448 100.267 89.5724L87.5878 82.1527Z" fill="white"/>
</g>
<defs>
<clipPath id="clip0_260_36">
<rect width="88" height="100" fill="white" transform="translate(31 25)"/>
</clipPath>
</defs>
</svg>
