<svg width="100" height="100" viewBox="0 0 100 100" fill="none" xmlns="http://www.w3.org/2000/svg">
<circle cx="50" cy="50" r="50" fill="black"/>
<g clip-path="url(#clip0_267_7)">
<path d="M20.4035 53.9598V47.0805H29.0186V46.6781H20.4035V40.4023H29.5633V40H20V54.362H29.6439V53.9598H20.4035ZM37.4117 44.0229L33.8407 48.7097L30.3501 44.023H29.8255L33.5985 49.0116L29.4623 54.3619H29.9465L33.8404 49.313L37.7545 54.3619H38.2589L34.1027 49.0113L37.8957 44.0228H37.4116L37.4117 44.0229ZM39.4696 57.9023V51.4656H39.5099C39.7521 52.4043 40.2296 53.1586 40.9424 53.7286C41.6553 54.2984 42.5632 54.5834 43.6661 54.5834C44.379 54.5834 45.0112 54.4393 45.5626 54.151C46.1141 53.8627 46.5748 53.4704 46.9447 52.9742C47.3145 52.4781 47.597 51.9015 47.7921 51.2443C47.9871 50.5873 48.0847 49.8966 48.0847 49.1726C48.0847 48.3948 47.9837 47.6773 47.7819 47.0203C47.5802 46.3631 47.2876 45.7932 46.9044 45.3105C46.521 44.8277 46.057 44.4521 45.5122 44.1841C44.9675 43.9158 44.3521 43.7817 43.6661 43.7817C43.1415 43.7817 42.654 43.8589 42.2034 44.013C41.7528 44.1673 41.3527 44.3851 41.003 44.6668C40.6512 44.9506 40.345 45.2864 40.095 45.6624C39.8395 46.0447 39.6444 46.4637 39.5099 46.9197H39.4696V44.0229H39.0661V57.9023H39.4696ZM43.6661 54.2011C42.4019 54.2011 41.3862 53.7686 40.6196 52.9037C39.853 52.0388 39.4696 50.795 39.4696 49.1724C39.4696 48.5018 39.5638 47.8649 39.7521 47.2615C39.9404 46.6581 40.2127 46.1283 40.5691 45.6724C40.9256 45.2165 41.3661 44.8544 41.8906 44.5862C42.4152 44.318 43.0071 44.1839 43.6661 44.1839C44.3386 44.1839 44.9271 44.318 45.4315 44.5862C45.9359 44.8544 46.3529 45.2198 46.6824 45.6825C47.0119 46.1451 47.2607 46.6749 47.4289 47.2715C47.597 47.8683 47.6811 48.5018 47.6811 49.1724C47.6811 49.7759 47.6038 50.376 47.449 50.9727C47.2944 51.5694 47.0556 52.1058 46.7328 52.582C46.4101 53.0579 45.9965 53.4468 45.4921 53.7486C44.9876 54.0503 44.379 54.2011 43.6661 54.2011ZM50.304 54.362V48.5086C50.304 47.9454 50.3846 47.3955 50.5461 46.8592C50.7074 46.3228 50.9563 45.85 51.2926 45.4411C51.6288 45.0321 52.0558 44.7102 52.5737 44.4755C53.0915 44.2408 53.7069 44.1437 54.4198 44.1839V43.7816C53.801 43.7683 53.2597 43.8352 52.7957 43.9827C52.3315 44.1303 51.9315 44.3314 51.5952 44.5862C51.2589 44.841 50.99 45.1393 50.7882 45.4813C50.5866 45.8228 50.437 46.1922 50.3443 46.5776H50.304V44.0229H49.9005V54.3621L50.304 54.362ZM54.9242 49.2729H63.5997C63.6267 48.5622 63.5561 47.8784 63.3879 47.2213C63.2198 46.5641 62.9507 45.9808 62.5809 45.4713C62.211 44.9617 61.7335 44.5527 61.1484 44.2442C60.5633 43.9358 59.8672 43.7816 59.0602 43.7816C58.4818 43.7816 57.9169 43.9023 57.3654 44.1438C56.814 44.3851 56.3297 44.737 55.9128 45.1997C55.4958 45.6623 55.1596 46.2289 54.9041 46.8995C54.6486 47.5699 54.5207 48.3343 54.5207 49.1925C54.5207 49.9569 54.6081 50.671 54.783 51.3348C54.9578 51.9985 55.2268 52.5752 55.5899 53.0647C55.9532 53.5541 56.4206 53.933 56.9922 54.2011C57.5638 54.4694 58.2532 54.5967 59.0602 54.5833C60.2438 54.5833 61.2392 54.2513 62.0462 53.5877C62.8533 52.9238 63.3307 51.9885 63.4787 50.7816H63.0752C62.9004 51.9215 62.453 52.7764 61.7335 53.3462C61.0138 53.9162 60.1094 54.2011 59.0198 54.2011C58.28 54.2011 57.6546 54.0737 57.1434 53.819C56.6324 53.5643 56.2154 53.2155 55.8926 52.773C55.5698 52.3304 55.331 51.8108 55.1764 51.214C55.0216 50.6174 54.9376 49.9703 54.9242 49.2729ZM63.1962 48.8707H54.9243C54.9645 48.1465 55.099 47.4962 55.3276 46.9196C55.5564 46.3429 55.8556 45.85 56.2256 45.4411C56.5954 45.0321 57.0259 44.7204 57.5168 44.5057C58.0077 44.2912 58.5357 44.1839 59.1006 44.1839C59.7731 44.1839 60.3648 44.308 60.876 44.5561C61.3871 44.8042 61.8142 45.1428 62.1572 45.5719C62.5002 46.0009 62.759 46.5005 62.9339 47.0704C63.1088 47.6403 63.1962 48.2405 63.1962 48.8707ZM71.9727 47.0805H72.3762C72.3762 45.9272 72.0399 45.0891 71.3675 44.5661C70.6948 44.0431 69.7802 43.7816 68.6235 43.7816C67.9778 43.7816 67.4332 43.8621 66.9892 44.023C66.5454 44.1839 66.1823 44.3918 65.8997 44.6465C65.6173 44.9012 65.4156 45.1829 65.2945 45.4914C65.1734 45.7998 65.1129 46.0949 65.1129 46.3764C65.1129 46.9396 65.2137 47.3888 65.4156 47.7241C65.6173 48.0594 65.9334 48.3209 66.3638 48.5086C66.6597 48.6426 66.9959 48.7633 67.3726 48.8708C67.7492 48.978 68.1864 49.092 68.684 49.2126C69.1279 49.32 69.565 49.4272 69.9955 49.5344C70.4259 49.6418 70.8059 49.7859 71.1353 49.9669C71.465 50.148 71.7339 50.3793 71.9424 50.661C72.1508 50.9425 72.2551 51.3113 72.2551 51.7672C72.2551 52.2098 72.151 52.5853 71.9424 52.8936C71.7357 53.2005 71.4636 53.4581 71.1455 53.648C70.8227 53.8424 70.4628 53.9832 70.0661 54.0703C69.6693 54.1575 69.2826 54.2011 68.906 54.2011C67.682 54.2011 66.7438 53.9296 66.0914 53.3865C65.4391 52.8434 65.113 51.9885 65.113 50.8218H64.7094C64.7094 52.1226 65.0625 53.0747 65.7686 53.6782C66.4748 54.2816 67.5206 54.5833 68.906 54.5833C69.3498 54.5833 69.797 54.533 70.2477 54.4324C70.6982 54.3318 71.1018 54.1677 71.4582 53.9396C71.8115 53.7148 72.1083 53.412 72.3257 53.0547C72.5477 52.6925 72.6587 52.25 72.6587 51.727C72.6587 51.2308 72.5611 50.8285 72.3661 50.5201C72.1711 50.2117 71.9156 49.9569 71.5994 49.7557C71.2833 49.5546 70.9269 49.3971 70.5301 49.2831C70.1311 49.1684 69.7309 49.0578 69.3296 48.9511C68.8358 48.8219 68.3415 48.6945 67.8467 48.569C67.4231 48.4616 67.0297 48.3343 66.6665 48.1867C66.3168 48.0392 66.0377 47.8281 65.8291 47.5532C65.6206 47.2783 65.5165 46.886 65.5165 46.3764C65.5165 46.2826 65.5434 46.1149 65.5971 45.8736C65.6509 45.6321 65.7788 45.3874 65.9805 45.1393C66.1822 44.8913 66.4915 44.67 66.9086 44.4755C67.3255 44.2812 67.8972 44.1839 68.6235 44.1839C69.1212 44.1839 69.5751 44.2376 69.9853 44.3448C70.3956 44.4521 70.7487 44.6231 71.0445 44.8578C71.3405 45.0925 71.5691 45.3908 71.7305 45.7529C71.8919 46.115 71.9727 46.5575 71.9727 47.0805ZM81.314 47.0805H81.7175C81.7175 45.9272 81.3813 45.0891 80.7088 44.5661C80.0362 44.0431 79.1216 43.7816 77.9648 43.7816C77.3192 43.7816 76.7744 43.8621 76.3306 44.023C75.8867 44.1839 75.5235 44.3918 75.2412 44.6465C74.9586 44.9012 74.7569 45.1829 74.6358 45.4914C74.5147 45.7998 74.4543 46.0949 74.4543 46.3764C74.4543 46.9396 74.5552 47.3888 74.757 47.7241C74.9586 48.0594 75.2748 48.3209 75.7052 48.5086C76.0011 48.6426 76.3373 48.7633 76.7139 48.8708C77.0905 48.978 77.5276 49.092 78.0253 49.2126C78.4693 49.32 78.9064 49.4272 79.3368 49.5344C79.7673 49.6418 80.1471 49.7859 80.4768 49.9669C80.8063 50.148 81.0753 50.3793 81.2837 50.661C81.4923 50.9425 81.5965 51.3113 81.5965 51.7672C81.5965 52.2098 81.4923 52.5853 81.2837 52.8936C81.077 53.2004 80.805 53.458 80.4869 53.648C80.164 53.8424 79.8042 53.9832 79.4074 54.0703C79.0107 54.1575 78.6239 54.2011 78.2473 54.2011C77.0233 54.2011 76.0852 53.9296 75.4328 53.3865C74.7804 52.8434 74.4543 51.9885 74.4543 50.8218H74.0508C74.0508 52.1226 74.4038 53.0747 75.11 53.6782C75.8161 54.2816 76.8619 54.5833 78.2473 54.5833C78.6912 54.5833 79.1384 54.533 79.589 54.4324C80.0395 54.3318 80.4431 54.1677 80.7996 53.9396C81.153 53.7148 81.4498 53.412 81.6671 53.0547C81.8891 52.6925 82 52.25 82 51.727C82 51.2308 81.9025 50.8285 81.7074 50.5201C81.5125 50.2117 81.257 49.9569 80.9408 49.7557C80.6247 49.5546 80.2682 49.3971 79.8715 49.2831C79.4725 49.1684 79.0723 49.0578 78.671 48.9511C78.1772 48.8219 77.6829 48.6945 77.1881 48.569C76.7644 48.4616 76.371 48.3343 76.0078 48.1867C75.6581 48.0392 75.379 47.8281 75.1706 47.5532C74.962 47.2783 74.8578 46.886 74.8578 46.3764C74.8578 46.2826 74.8847 46.1149 74.9385 45.8736C74.9923 45.6321 75.1202 45.3874 75.3218 45.1393C75.5235 44.8913 75.8329 44.67 76.2499 44.4755C76.6669 44.2812 77.2385 44.1839 77.9649 44.1839C78.4626 44.1839 78.9165 44.2376 79.3267 44.3448C79.737 44.4521 80.09 44.6231 80.3859 44.8578C80.6819 45.0925 80.9105 45.3908 81.0719 45.7529C81.2334 46.115 81.3141 46.5575 81.3141 47.0805H81.314Z" fill="white"/>
</g>
<defs>
<clipPath id="clip0_267_7">
<rect width="62" height="18" fill="white" transform="translate(20 40)"/>
</clipPath>
</defs>
</svg>
