<svg width="120" height="120" viewBox="0 0 120 120" fill="none" xmlns="http://www.w3.org/2000/svg">
<circle cx="60" cy="60" r="60" fill="#F43F5E"/>
<path d="M49.6465 76.9627C49.6465 76.9627 46.4873 78.8283 51.8953 79.4621C58.4487 80.2201 61.801 80.1123 69.0235 78.7237C69.0235 78.7237 70.9217 79.9326 73.5758 80.9814C57.3838 88.0288 36.9291 80.573 49.6465 76.9627ZM47.668 67.7654C47.668 67.7654 44.1227 70.4314 49.5372 70.9999C56.5377 71.7318 62.068 71.7939 71.6359 69.9218C71.6359 69.9218 72.9581 71.2842 75.0396 72.0291C55.4632 77.8416 33.6572 72.4865 47.668 67.7654ZM64.349 52.1643C68.3383 56.8299 63.3002 61.0283 63.3002 61.0283C63.3002 61.0283 73.4311 55.719 68.779 49.0669C64.4326 42.8657 61.1029 39.7847 79.1415 29.1596C79.1415 29.1596 50.8273 36.3377 64.349 52.1643ZM85.7625 83.7651C85.7625 83.7651 88.1013 85.7222 83.1855 87.2349C73.8396 90.1101 44.2867 90.9792 36.0765 87.3493C33.1264 86.0456 38.6599 84.2356 40.4004 83.8566C42.2149 83.458 43.254 83.5298 43.254 83.5298C39.9725 81.1807 22.04 88.1399 34.1462 90.1329C67.1608 95.5696 94.3266 87.689 85.7625 83.7651ZM51.1651 58.2381C51.1651 58.2381 36.1312 61.8647 45.8406 63.1814C49.9393 63.7401 58.1109 63.6127 65.7259 62.9658C71.9479 62.4332 78.1957 61.2995 78.1957 61.2995C78.1957 61.2995 76.0016 62.2535 74.4155 63.3546C59.1501 67.4321 29.6615 65.5338 38.1516 61.3648C45.3323 57.8395 51.1683 58.2413 51.1683 58.2413L51.1651 58.2381ZM78.1346 73.5451C93.6542 65.3574 86.4767 57.4866 81.4708 58.5452C80.2418 58.8033 79.6949 59.0288 79.6949 59.0288C79.6949 59.0288 80.1517 58.3034 81.0204 57.9898C90.926 54.4513 98.5475 68.4221 77.8225 73.9568C77.8225 73.9568 78.0638 73.7379 78.1346 73.5451ZM68.7758 12C68.7758 12 77.3689 20.7301 60.6235 34.1552C47.1951 44.924 57.5608 51.0665 60.6171 58.0813C52.7801 50.8998 47.0278 44.5777 50.8852 38.6934C56.5506 30.0548 72.2439 25.8695 68.7758 12ZM52.69 95.7363C67.5855 96.7034 90.4595 95.2004 91 88.0419C91 88.0419 89.9576 90.757 78.6911 92.9101C65.9769 95.3409 50.2964 95.0567 40.9988 93.4982C40.9988 93.4982 42.9002 95.0992 52.69 95.7363Z" fill="black"/>
</svg>
