<svg width="100" height="100" viewBox="0 0 100 100" fill="none" xmlns="http://www.w3.org/2000/svg">
<circle cx="50" cy="50" r="50" fill="#D4D4D4"/>
<g clip-path="url(#clip0_267_8)">
<path d="M49.0881 72.8702C48.841 72.8702 48.6104 72.804 48.3961 72.6881L46.2048 71.3796C45.8752 71.1973 46.04 71.1311 46.1389 71.098C46.5837 70.949 46.6661 70.9157 47.1275 70.6509C47.1769 70.6176 47.2429 70.6343 47.2923 70.6674L48.9729 71.6777C49.0387 71.7108 49.1211 71.7108 49.1705 71.6777L55.7446 67.8516C55.8105 67.8185 55.8435 67.7521 55.8435 67.6694V60.0338C55.8435 59.9508 55.8105 59.8847 55.7446 59.8515L49.1705 56.0419C49.1046 56.0087 49.0222 56.0087 48.9729 56.0419L42.3988 59.8515C42.3329 59.8846 42.2998 59.9674 42.2998 60.0336V67.6693C42.2998 67.7356 42.3329 67.8183 42.3988 67.8516L44.1947 68.895C45.1668 69.3919 45.7764 68.8122 45.7764 68.2325V60.6962C45.7764 60.5968 45.8588 60.4974 45.9741 60.4974H46.8144C46.9133 60.4974 47.0121 60.5802 47.0121 60.6962V68.2325C47.0121 69.5409 46.3036 70.3029 45.0679 70.3029C44.689 70.3029 44.3925 70.3029 43.5521 69.8888L41.8221 68.895C41.3937 68.6467 41.1301 68.1828 41.1301 67.6859V60.0502C41.1301 59.5534 41.3937 59.0895 41.8221 58.8411L48.3961 55.015C48.8081 54.7831 49.3683 54.7831 49.7802 55.015L56.3542 58.8411C56.7826 59.0895 57.0463 59.5534 57.0463 60.0502V67.6859C57.0463 68.1828 56.7826 68.6467 56.3542 68.895L49.7802 72.7212C49.5659 72.8206 49.3187 72.8702 49.0881 72.8702ZM51.1147 67.6197C48.2314 67.6197 47.6382 66.2946 47.6382 65.1683C47.6382 65.0689 47.7206 64.9696 47.836 64.9696H48.6928C48.7915 64.9696 48.8739 65.0358 48.8739 65.1352C49.0058 66.013 49.3847 66.4437 51.1312 66.4437C52.5152 66.4437 53.1085 66.129 53.1085 65.3836C53.1085 64.953 52.9436 64.6384 50.7852 64.423C48.9893 64.2407 47.8689 63.8433 47.8689 62.4023C47.8689 61.0606 48.9894 60.2655 50.8676 60.2655C52.9765 60.2655 54.0146 60.9944 54.1465 62.5843C54.1465 62.6342 54.13 62.6837 54.097 62.7335C54.064 62.7666 54.0146 62.7997 53.9652 62.7997H53.1084C53.026 62.7997 52.9436 62.7335 52.9272 62.6506C52.7295 61.7398 52.2187 61.4415 50.8676 61.4415C49.3518 61.4415 49.1705 61.9716 49.1705 62.369C49.1705 62.8494 49.3847 62.9985 51.4278 63.2634C53.4544 63.5286 54.4101 63.9095 54.4101 65.3339C54.3936 66.7915 53.2073 67.6197 51.1147 67.6197Z" fill="#539E43"/>
<path d="M28.6904 43.0065C28.6904 42.7084 28.5256 42.4267 28.262 42.2776L21.2761 38.2362C21.1606 38.1699 21.0289 38.1368 20.8971 38.1202H20.8311C20.6994 38.1202 20.5675 38.1699 20.4522 38.2362L13.4662 42.2776C13.2025 42.4267 13.0378 42.7083 13.0378 43.0065L13.0544 53.872C13.0544 54.0211 13.1368 54.1701 13.2685 54.2365C13.4004 54.3193 13.565 54.3193 13.6805 54.2365L17.8325 51.8513C18.0961 51.7023 18.2609 51.4207 18.2609 51.1226V46.0376C18.2609 45.7395 18.4256 45.4579 18.6893 45.3088L20.4522 44.2819C20.5841 44.199 20.7323 44.1658 20.8806 44.1658C21.0289 44.1658 21.1771 44.199 21.2926 44.2819L23.0555 45.3088C23.3192 45.4579 23.4839 45.7394 23.4839 46.0376V51.1226C23.4839 51.4207 23.6487 51.7023 23.9123 51.8513L28.0643 54.2365C28.1962 54.3193 28.3608 54.3193 28.4927 54.2365C28.6246 54.1701 28.707 54.0211 28.707 53.872L28.6904 43.0065ZM62.2692 28.0498C62.1375 27.9834 61.9727 27.9834 61.8573 28.0498C61.7255 28.1326 61.6431 28.265 61.6431 28.4141V39.1804C61.6431 39.2797 61.5938 39.379 61.4949 39.4454C61.3961 39.495 61.2971 39.495 61.1983 39.4454L59.4519 38.435C59.3238 38.3617 59.179 38.3232 59.0317 38.3232C58.8843 38.3232 58.7395 38.3617 58.6115 38.435L51.6255 42.493C51.3619 42.6421 51.1971 42.9237 51.1971 43.2218V51.3212C51.1971 51.6193 51.3619 51.9011 51.6255 52.0501L58.6115 56.1081C58.7395 56.1814 58.8843 56.2199 59.0317 56.2199C59.179 56.2199 59.3238 56.1814 59.4519 56.1081L66.4378 52.0501C66.7014 51.9011 66.8662 51.6194 66.8662 51.3212V31.1305C66.8662 30.8158 66.7014 30.5344 66.4378 30.3852L62.2692 28.0498ZM61.6267 48.6546C61.6267 48.7374 61.5938 48.8036 61.5278 48.8368L59.1388 50.228C59.1054 50.2444 59.0688 50.2529 59.0317 50.2529C58.9945 50.2529 58.9579 50.2444 58.9245 50.228L56.5355 48.8368C56.4695 48.8036 56.4366 48.7208 56.4366 48.6546V45.8719C56.4366 45.7891 56.4695 45.7229 56.5355 45.6898L58.9245 44.2983C58.9579 44.282 58.9945 44.2735 59.0317 44.2735C59.0688 44.2735 59.1054 44.282 59.1388 44.2983L61.5278 45.6898C61.5938 45.7227 61.6267 45.8057 61.6267 45.8719V48.6546ZM85.5174 45.8057C85.7811 45.6567 85.9294 45.3751 85.9294 45.0768V43.1058C85.9294 42.8078 85.7646 42.5261 85.5174 42.3771L78.5809 38.3357C78.4529 38.2624 78.3081 38.2239 78.1608 38.2239C78.0134 38.2239 77.8687 38.2624 77.7406 38.3357L70.7547 42.3936C70.4909 42.5426 70.3263 42.8242 70.3263 43.1225V51.2219C70.3263 51.52 70.4909 51.8016 70.7547 51.9506L77.6912 55.9258C77.9549 56.0749 78.2678 56.0749 78.515 55.9258L82.7164 53.5741C82.8482 53.5077 82.9306 53.3587 82.9306 53.2096C82.9306 53.0606 82.8482 52.9115 82.7164 52.8452L75.6975 48.7872C75.5658 48.7045 75.4833 48.5719 75.4833 48.4229V45.8887C75.4833 45.7396 75.5658 45.5906 75.6975 45.5242L77.8889 44.2654C77.953 44.2248 78.0273 44.2033 78.1031 44.2033C78.1789 44.2033 78.2531 44.2248 78.3173 44.2654L80.5086 45.5242C80.6404 45.6071 80.7228 45.7395 80.7228 45.8887V47.8763C80.7228 48.0253 80.8052 48.1744 80.937 48.2406C81.0688 48.3234 81.2335 48.3234 81.3653 48.2406L85.5174 45.8057Z" fill="#333333"/>
<path d="M78.0538 45.4247C78.0782 45.4085 78.1068 45.3999 78.1361 45.3999C78.1654 45.3999 78.194 45.4085 78.2184 45.4247L79.5531 46.2032C79.6025 46.2361 79.6355 46.2859 79.6355 46.3522V47.9092C79.6355 47.9754 79.6025 48.0251 79.5531 48.0582L78.2184 48.8367C78.194 48.8529 78.1654 48.8615 78.1361 48.8615C78.1068 48.8615 78.0782 48.8529 78.0538 48.8367L76.7191 48.0582C76.6697 48.0251 76.6367 47.9754 76.6367 47.9092V46.3522C76.6367 46.2859 76.6697 46.2361 76.7191 46.2032L78.0538 45.4247Z" fill="#539E43"/>
<path d="M40.3721 38.3689C40.2441 38.2956 40.0993 38.2571 39.952 38.2571C39.8047 38.2571 39.6599 38.2956 39.5318 38.3689L32.5953 42.3935C32.3316 42.5425 32.1833 42.8242 32.1833 43.1222V51.1887C32.1833 51.4868 32.3481 51.7684 32.5953 51.9174L39.5318 55.9424C39.6599 56.0156 39.8047 56.0542 39.952 56.0542C40.0993 56.0542 40.2441 56.0156 40.3721 55.9424L47.3087 51.9174C47.5723 51.7684 47.7207 51.4868 47.7207 51.1887V43.1224C47.7207 42.8243 47.5558 42.5427 47.3087 42.3936L40.3721 38.3689Z" fill="url(#paint0_linear_267_8)"/>
<mask id="mask0_267_8" style="mask-type:luminance" maskUnits="userSpaceOnUse" x="32" y="38" width="16" height="19">
<path d="M40.3721 38.3689C40.2441 38.2956 40.0993 38.2571 39.952 38.2571C39.8047 38.2571 39.6599 38.2956 39.5318 38.3689L32.5953 42.3935C32.3316 42.5425 32.1833 42.8242 32.1833 43.1222V51.1887C32.1833 51.4868 32.3481 51.7684 32.5953 51.9174L39.5318 55.9424C39.6599 56.0156 39.8047 56.0542 39.952 56.0542C40.0993 56.0542 40.2441 56.0156 40.3721 55.9424L47.3087 51.9174C47.5723 51.7684 47.7207 51.4868 47.7207 51.1887V43.1224C47.7207 42.8243 47.5558 42.5427 47.3087 42.3936L40.3721 38.3689Z" fill="white"/>
</mask>
<g mask="url(#mask0_267_8)">
<path d="M47.3251 42.3937L40.3556 38.369C40.2872 38.3342 40.2154 38.3065 40.1414 38.2861L32.3315 51.7357C32.3962 51.8151 32.4744 51.8824 32.5623 51.9345L39.5318 55.9594C39.7295 56.0753 39.9602 56.1084 40.1743 56.0421L47.5064 42.5596C47.4569 42.4933 47.3909 42.4433 47.3251 42.3937Z" fill="url(#paint1_linear_267_8)"/>
</g>
<mask id="mask1_267_8" style="mask-type:luminance" maskUnits="userSpaceOnUse" x="32" y="38" width="16" height="19">
<path d="M40.3721 38.3689C40.2441 38.2956 40.0993 38.2571 39.952 38.2571C39.8047 38.2571 39.6599 38.2956 39.5318 38.3689L32.5953 42.3935C32.3316 42.5425 32.1833 42.8242 32.1833 43.1222V51.1887C32.1833 51.4868 32.3481 51.7684 32.5953 51.9174L39.5318 55.9424C39.6599 56.0156 39.8047 56.0542 39.952 56.0542C40.0993 56.0542 40.2441 56.0156 40.3721 55.9424L47.3087 51.9174C47.5723 51.7684 47.7207 51.4868 47.7207 51.1887V43.1224C47.7207 42.8243 47.5558 42.5427 47.3087 42.3936L40.3721 38.3689Z" fill="white"/>
</mask>
<g mask="url(#mask1_267_8)">
<path fill-rule="evenodd" clip-rule="evenodd" d="M47.3417 51.9174C47.5394 51.8015 47.6877 51.6027 47.7537 51.3874L40.1084 38.2692C39.9106 38.2361 39.6964 38.2526 39.5153 38.3685L32.5952 42.377L40.0589 56.0583C40.1674 56.0404 40.2729 56.007 40.372 55.959L47.3415 51.9176L47.3417 51.9174Z" fill="url(#paint2_linear_267_8)"/>
<path fill-rule="evenodd" clip-rule="evenodd" d="M47.3415 51.9174L40.3885 55.9424C40.2903 55.9927 40.1845 56.0262 40.0754 56.0417L40.2073 56.2902L47.9182 51.8016V51.7022L47.7205 51.3708C47.6875 51.6027 47.5393 51.8015 47.3415 51.9174Z" fill="url(#paint3_linear_267_8)"/>
<path fill-rule="evenodd" clip-rule="evenodd" d="M47.3415 51.9174L40.3885 55.9424C40.2903 55.9927 40.1845 56.0262 40.0754 56.0417L40.2073 56.2902L47.9182 51.8016V51.7022L47.7205 51.3708C47.6875 51.6027 47.5393 51.8015 47.3415 51.9174Z" fill="url(#paint4_linear_267_8)"/>
</g>
</g>
<defs>
<linearGradient id="paint0_linear_267_8" x1="1091.65" y1="349.475" x2="325.625" y2="1546.8" gradientUnits="userSpaceOnUse">
<stop stop-color="#41873F"/>
<stop offset="0.3288" stop-color="#418B3D"/>
<stop offset="0.6352" stop-color="#419637"/>
<stop offset="0.9319" stop-color="#3FA92D"/>
<stop offset="1" stop-color="#3FAE2A"/>
</linearGradient>
<linearGradient id="paint1_linear_267_8" x1="689.054" y1="1019.73" x2="2597.77" y2="-11.8335" gradientUnits="userSpaceOnUse">
<stop offset="0.1376" stop-color="#41873F"/>
<stop offset="0.4032" stop-color="#54A044"/>
<stop offset="0.7136" stop-color="#66B848"/>
<stop offset="0.9081" stop-color="#6CC04A"/>
</linearGradient>
<linearGradient id="paint2_linear_267_8" x1="-33.9353" y1="928.407" x2="1571.16" y2="928.407" gradientUnits="userSpaceOnUse">
<stop offset="0.09192" stop-color="#6CC04A"/>
<stop offset="0.2864" stop-color="#66B848"/>
<stop offset="0.5968" stop-color="#54A044"/>
<stop offset="0.8624" stop-color="#41873F"/>
</linearGradient>
<linearGradient id="paint3_linear_267_8" x1="-774.481" y1="298.69" x2="830.601" y2="298.69" gradientUnits="userSpaceOnUse">
<stop offset="0.09192" stop-color="#6CC04A"/>
<stop offset="0.2864" stop-color="#66B848"/>
<stop offset="0.5968" stop-color="#54A044"/>
<stop offset="0.8624" stop-color="#41873F"/>
</linearGradient>
<linearGradient id="paint4_linear_267_8" x1="1064.44" y1="-986.947" x2="653.658" y2="1154.24" gradientUnits="userSpaceOnUse">
<stop stop-color="#41873F"/>
<stop offset="0.3288" stop-color="#418B3D"/>
<stop offset="0.6352" stop-color="#419637"/>
<stop offset="0.9319" stop-color="#3FA92D"/>
<stop offset="1" stop-color="#3FAE2A"/>
</linearGradient>
<clipPath id="clip0_267_8">
<rect width="73" height="45" fill="white" transform="translate(13 28)"/>
</clipPath>
</defs>
</svg>
