<svg width="100" height="100" viewBox="0 0 100 100" fill="none" xmlns="http://www.w3.org/2000/svg">
<circle cx="50" cy="50" r="50" fill="#FDEA12"/>
<path d="M72.7847 66.5467C77.4356 66.5467 79.1553 63.3028 80.7717 58.4397C82.4467 53.4315 82.3741 48.6131 80.7717 42.1978C79.6187 37.5776 77.4384 34.0908 72.7847 34.0908H66.791V41.1844C66.791 46.6868 62.1233 51.3238 56.8024 51.3238H40.8285C36.4596 51.3238 32.8416 55.0618 32.8416 59.4447V74.6705C32.8416 79.0059 36.6103 81.5492 40.8285 82.7914C45.8814 84.271 50.7445 84.539 56.7996 82.7914C60.8224 81.6245 64.7866 79.2739 64.7866 74.6705V68.5819H48.8266V66.5495H72.7847V66.5467ZM57.8018 72.6354C59.4601 72.6354 60.8085 73.9977 60.8085 75.6727C60.8085 77.3644 59.4629 78.724 57.8018 78.724C56.9997 78.7144 56.2337 78.3885 55.6707 77.817C55.1076 77.2456 54.793 76.4749 54.7952 75.6727C54.7952 74.8724 55.111 74.1045 55.674 73.5358C56.2369 72.967 57.0016 72.6435 57.8018 72.6354Z" fill="black"/>
<path d="M24.6144 66.5489H30.1028V59.2487C30.1028 53.9697 34.6644 49.3159 40.0914 49.3159H56.0625C60.504 49.3159 64.0494 45.6533 64.0494 41.195V25.9581C64.0494 21.6226 60.4007 18.3731 56.0625 17.6445C50.7081 16.7595 44.8902 16.8098 40.0914 17.6612L40.0941 17.6584C33.3327 18.8533 32.11 21.349 32.11 25.9692V32.0579H48.0979V34.093H26.1107C21.4598 34.093 17.3895 36.8902 16.1221 42.2C14.6565 48.2886 14.5979 52.0853 16.1221 58.4419C17.2555 63.1682 19.9662 66.5489 24.6144 66.5489ZM39.0919 27.9904C38.2908 27.9852 37.5244 27.6626 36.9608 27.0932C36.3972 26.5239 36.0823 25.7542 36.0853 24.9531C36.0823 24.1506 36.3967 23.3795 36.9599 22.8079C37.5232 22.2363 38.2895 21.9106 39.0919 21.9018C40.739 21.9018 42.0986 23.2753 42.0986 24.9531C42.0986 26.6309 40.753 27.9904 39.0919 27.9904Z" fill="black"/>
</svg>
