<svg width="100" height="100" viewBox="0 0 100 100" fill="none" xmlns="http://www.w3.org/2000/svg">
<circle cx="50" cy="50" r="50" fill="#232E39"/>
<path d="M88 50.0079C88 44.8919 81.6121 40.0434 71.8184 37.0368C74.0785 27.025 73.074 19.0597 68.648 16.5096C67.6278 15.9114 66.435 15.628 65.1323 15.628V19.1384C65.8543 19.1384 66.435 19.2801 66.9215 19.5477C69.0561 20.7756 69.9821 25.4509 69.2601 31.4642C69.0874 32.9439 68.8049 34.5023 68.4596 36.0923C65.3834 35.3367 62.0247 34.7542 58.4933 34.3764C56.3744 31.4642 54.1771 28.8196 51.9641 26.5056C57.0807 21.7358 61.8834 19.1227 65.148 19.1227V15.6123C60.8318 15.6123 55.1816 18.6977 49.4686 24.0499C43.7556 18.7292 38.1054 15.6753 33.7892 15.6753V19.1857C37.0381 19.1857 41.8565 21.7831 46.9731 26.5213C44.7758 28.8353 42.5785 31.4642 40.491 34.3764C36.9439 34.7542 33.5852 35.3367 30.509 36.108C30.148 34.5338 29.8812 33.0069 29.6928 31.5429C28.9552 25.5296 29.8655 20.8543 31.9843 19.6107C32.4552 19.3273 33.0673 19.2014 33.7892 19.2014V15.691C32.4709 15.691 31.278 15.9744 30.2422 16.5725C25.8318 19.1227 24.8431 27.0723 27.1188 37.0525C17.3565 40.0749 11 44.9076 11 50.0079C11 55.124 17.3879 59.9724 27.1816 62.9791C24.9215 72.9908 25.926 80.9561 30.352 83.5063C31.3722 84.1045 32.565 84.3878 33.8834 84.3878C38.1996 84.3878 43.8498 81.3024 49.5628 75.9502C55.2758 81.2709 60.926 84.3248 65.2422 84.3248C66.5605 84.3248 67.7534 84.0415 68.7892 83.4433C73.1996 80.8931 74.1883 72.9436 71.9126 62.9633C81.6435 59.9567 88 55.1082 88 50.0079ZM67.565 39.5082C66.9843 41.5389 66.2623 43.6325 65.4462 45.7262C64.8027 44.4668 64.1278 43.2075 63.3901 41.9482C62.6682 40.6888 61.8991 39.461 61.1301 38.2646C63.3588 38.5952 65.509 39.0045 67.565 39.5082ZM60.3767 56.2731C59.1525 58.3983 57.8969 60.4132 56.5942 62.2865C54.2556 62.4911 51.8857 62.6013 49.5 62.6013C47.13 62.6013 44.7601 62.4911 42.4372 62.3022C41.1345 60.4289 39.8632 58.4297 38.639 56.3204C37.4462 54.2582 36.3632 52.1645 35.3744 50.0551C36.3475 47.9458 37.4462 45.8364 38.6233 43.7742C39.8475 41.6491 41.1031 39.6341 42.4058 37.7609C44.7444 37.5562 47.1144 37.446 49.5 37.446C51.87 37.446 54.2399 37.5562 56.5628 37.7451C57.8655 39.6184 59.1368 41.6176 60.361 43.727C61.5538 45.7892 62.6368 47.8828 63.6256 49.9922C62.6368 52.1016 61.5538 54.211 60.3767 56.2731ZM65.4462 54.2267C66.2937 56.3361 67.0157 58.4455 67.6121 60.4919C65.5561 60.9956 63.3901 61.4207 61.1457 61.7512C61.9148 60.5391 62.6839 59.2955 63.4058 58.0205C64.1278 56.7611 64.8027 55.486 65.4462 54.2267ZM49.5314 71.0231C48.0718 69.5119 46.6121 67.8275 45.1682 65.9858C46.5807 66.0487 48.0247 66.0959 49.4843 66.0959C50.9596 66.0959 52.4193 66.0645 53.8475 65.9858C52.435 67.8275 50.9753 69.5119 49.5314 71.0231ZM37.8543 61.7512C35.6256 61.4207 33.4753 61.0114 31.4193 60.5076C32 58.477 32.722 56.3833 33.5381 54.2897C34.1816 55.549 34.8565 56.8083 35.5942 58.0677C36.3318 59.327 37.0852 60.5549 37.8543 61.7512ZM49.4529 28.9928C50.9126 30.504 52.3722 32.1883 53.8161 34.0301C52.4036 33.9671 50.9596 33.9199 49.5 33.9199C48.0247 33.9199 46.565 33.9514 45.1368 34.0301C46.5493 32.1883 48.009 30.504 49.4529 28.9928ZM37.8386 38.2646C37.0695 39.4767 36.3004 40.7203 35.5785 41.9954C34.8565 43.2547 34.1816 44.5141 33.5381 45.7734C32.6906 43.664 31.9686 41.5546 31.3722 39.5082C33.4283 39.0202 35.5942 38.5952 37.8386 38.2646ZM23.6345 57.9732C18.0785 55.5962 14.4843 52.4794 14.4843 50.0079C14.4843 47.5365 18.0785 44.4039 23.6345 42.0426C24.9843 41.4602 26.4596 40.9407 27.9821 40.4527C28.8767 43.5381 30.0538 46.7494 31.5135 50.0394C30.0695 53.3137 28.9081 56.5092 28.0292 59.5789C26.4753 59.0909 25 58.5557 23.6345 57.9732ZM32.0785 80.4681C29.9439 79.2403 29.0179 74.565 29.7399 68.5517C29.9126 67.0719 30.1951 65.5135 30.5404 63.9236C33.6166 64.6792 36.9753 65.2616 40.5067 65.6394C42.6256 68.5517 44.8229 71.1963 47.0359 73.5103C41.9193 78.28 37.1166 80.8932 33.852 80.8932C33.1457 80.8774 32.5493 80.7357 32.0785 80.4681ZM69.3072 68.4729C70.0448 74.4863 69.1345 79.1616 67.0157 80.4052C66.5448 80.6885 65.9327 80.8144 65.2108 80.8144C61.9619 80.8144 57.1435 78.2171 52.0269 73.4788C54.2242 71.1648 56.4215 68.5359 58.509 65.6237C62.0561 65.2459 65.4148 64.6635 68.491 63.8921C68.852 65.482 69.1345 67.009 69.3072 68.4729ZM75.3498 57.9732C74 58.5557 72.5247 59.0751 71.0022 59.5631C70.1076 56.4778 68.9305 53.2665 67.4709 49.9764C68.9148 46.7022 70.0762 43.5066 70.9552 40.437C72.509 40.925 73.9843 41.4602 75.3655 42.0426C80.9215 44.4196 84.5157 47.5365 84.5157 50.0079C84.5 52.4794 80.9058 55.612 75.3498 57.9732Z" fill="#61DAFB"/>
<path d="M49.4844 57.2019C53.4458 57.2019 56.6571 53.981 56.6571 50.0079C56.6571 46.0348 53.4458 42.814 49.4844 42.814C45.5231 42.814 42.3118 46.0348 42.3118 50.0079C42.3118 53.981 45.5231 57.2019 49.4844 57.2019Z" fill="#61DAFB"/>
</svg>
