<svg width="100" height="100" viewBox="0 0 100 100" fill="none" xmlns="http://www.w3.org/2000/svg">
<circle cx="50" cy="50" r="50" fill="#272A2E"/>
<g clip-path="url(#clip0_267_6)">
<path d="M65.3529 59.7795C68.1944 59.4869 70.3501 57.0506 70.252 54.1266C70.1542 51.2029 67.7044 48.8638 64.7648 48.8638H64.569C61.5311 48.9614 59.1796 51.4952 59.2777 54.5164C59.3757 55.9784 59.9635 57.2453 60.8454 58.1224C57.5139 64.6524 52.4187 69.4279 44.7758 73.4237C39.5825 76.1526 34.1934 77.1273 28.8043 76.4452C24.3949 75.8603 20.9654 73.9113 18.8094 70.6948C15.674 65.9194 15.3802 60.7538 18.0258 55.5886C19.8877 51.885 22.8269 49.1561 24.6888 47.7917C24.2968 46.5247 23.7088 44.3807 23.4149 42.8215C9.20694 53.0547 10.6769 66.894 14.9883 73.4237C18.2217 78.297 24.7868 81.3182 32.0377 81.3182C33.9973 81.3182 35.9569 81.1231 37.9168 80.6361C50.4591 78.1994 59.9638 70.7923 65.3529 59.7795ZM82.5985 47.6944C75.1514 39.0204 64.1771 34.2449 51.6348 34.2449H50.0672C49.1853 32.4907 47.3234 31.321 45.2658 31.321H45.0697C42.0324 31.4185 39.6809 33.9524 39.7786 36.9738C39.8767 39.8975 42.3263 42.2366 45.2658 42.2366H45.4616C47.6173 42.1391 49.4791 40.7746 50.263 38.9229H52.0268C59.4738 38.9229 66.5286 41.0669 72.898 45.2578C77.7971 48.474 81.3247 52.6649 83.2842 57.7326C84.95 61.826 84.8519 65.8218 83.0881 69.2331C80.3447 74.3984 75.7395 77.2248 69.6643 77.2248C65.7448 77.2248 62.0214 76.0551 60.0615 75.178C58.9838 76.1526 57.0239 77.7118 55.6521 78.6868C59.8657 80.6358 64.1771 81.708 68.2924 81.708C77.699 81.708 84.6561 76.5424 87.3018 71.3772C90.1433 65.7243 89.9472 55.9784 82.5985 47.6944ZM32.8216 61.4359C32.9196 64.3599 35.3692 66.6987 38.3087 66.6987H38.5048C41.5424 66.6014 43.8939 64.0673 43.7959 61.0461C43.6981 58.1221 41.2483 55.7833 38.3087 55.7833H38.1129C37.9168 55.7833 37.6226 55.7833 37.4271 55.8806C33.4096 49.2533 31.7439 42.0416 32.3319 34.2446C32.7235 28.397 34.6834 23.329 38.1129 19.1381C40.9544 15.5321 46.4416 13.7778 50.1652 13.6806C60.5515 13.4855 64.9607 26.3502 65.2548 31.5157C66.5286 31.808 68.6843 32.4904 70.1542 32.9777C68.9782 17.1894 59.1796 9.00269 49.7733 9.00269C40.9544 9.00269 32.8216 15.3376 29.5879 24.6938C25.0807 37.1686 28.0202 49.1561 33.5074 58.6098C33.0177 59.2918 32.7235 60.3637 32.8216 61.4359Z" fill="#764ABC"/>
</g>
<defs>
<clipPath id="clip0_267_6">
<rect width="77" height="73" fill="white" transform="translate(12 9)"/>
</clipPath>
</defs>
</svg>
