<svg width="100" height="100" viewBox="0 0 100 100" fill="none" xmlns="http://www.w3.org/2000/svg">
<circle cx="50" cy="50" r="50" fill="#FDEA12"/>
<path d="M36.0299 49.6703C35.9478 44.6762 33.1361 39.824 28.7852 37.2656C25.3582 35.1542 21.0352 34.5861 17.1292 35.5605C11.2602 37.0226 6.58923 42.2804 5.98473 48.2696C5.24616 53.9337 8.13923 59.8209 13.0853 62.7243C17.929 65.7296 24.5165 65.607 29.2572 62.4406C33.5259 59.6998 36.1733 54.6973 36.0307 49.671L36.0299 49.6703ZM21.7878 62.7036C14.9337 63.3737 8.30431 57.6283 8.11986 50.8203C7.60681 45.298 11.2803 39.837 16.534 38.0169C23.9012 35.0936 32.9516 40.4933 33.7111 48.3102C34.9015 55.3344 28.9836 62.4797 21.7878 62.7036ZM17.2726 49.2448L27.1926 41.2254L21.8451 49.2647C20.3261 49.2647 18.8071 49.2647 17.2881 49.2448H17.2726ZM20.0626 50.7267L24.6196 50.7467L14.6996 58.7859L20.0471 50.726L20.0626 50.7267Z" fill="#010101"/>
<path d="M40.5754 54.531C41.0776 54.8124 41.8309 55.0117 42.6679 55.0117C44.4938 55.0117 45.4657 54.117 45.4657 52.8911C45.4486 51.8806 44.8798 51.2504 43.6398 50.8211C42.7687 50.5068 42.4339 50.3074 42.4339 49.8766C42.4339 49.4626 42.7687 49.1636 43.3887 49.1636C43.9916 49.1636 44.5434 49.3782 44.8457 49.5622L45.1805 48.3524C44.7775 48.1378 44.1265 47.9538 43.3546 47.9538C41.7635 47.9538 40.7583 48.8738 40.7583 50.0912C40.7413 50.8863 41.3109 51.6154 42.6509 52.0792C43.5049 52.3782 43.7731 52.6097 43.7731 53.0736C43.7731 53.5205 43.4383 53.8188 42.6679 53.8188C42.0479 53.8188 41.2946 53.5704 40.9087 53.3381L40.5754 54.531ZM49.4027 47.92C47.3257 47.92 45.8516 49.2954 45.8516 51.5234C45.8516 53.693 47.342 55.0194 49.2849 55.0194C51.0271 55.0194 52.8018 53.9092 52.8018 51.4084C52.8189 49.3537 51.4456 47.9292 49.4019 47.9292L49.4027 47.92ZM49.3694 49.1789C50.5582 49.1789 51.0279 50.3887 51.0279 51.4482C51.0279 52.8236 50.3412 53.7843 49.3539 53.7843C48.2999 53.7843 47.6458 52.7899 47.6458 51.4812C47.6458 50.3542 48.1317 49.1781 49.3709 49.1781L49.3694 49.1789ZM58.464 53.3879C58.0291 53.5674 57.5619 53.6576 57.0907 53.6532C55.9018 53.6532 54.9982 52.8581 54.9982 51.4659C54.9811 50.2239 55.7685 49.2625 57.0907 49.2625C57.7107 49.2625 58.1121 49.3951 58.3973 49.5277L58.7151 48.252C58.3121 48.0695 57.6766 47.9377 57.0411 47.9377C54.6293 47.9377 53.2227 49.5285 53.2227 51.5663C53.2227 53.6708 54.613 55.0293 56.7567 55.0293C57.6107 55.0293 58.3299 54.8469 58.6996 54.6813L58.464 53.3879ZM61.1269 44.9714H59.3847V54.8791H61.1269V52.5607L61.7128 51.8814L63.689 54.8806H65.8164L62.9179 50.8709L65.4638 48.0879H63.3713L61.7128 50.2752C61.5283 50.5075 61.3276 50.8058 61.1602 51.0703H61.1269V44.9714ZM71.7111 51.9473C71.7444 51.7986 71.7614 51.5487 71.7614 51.219C71.7614 49.7278 71.0252 47.9055 68.7971 47.9055C66.6038 47.9055 65.4475 49.678 65.4475 51.5671C65.4475 53.6371 66.7542 54.9964 68.9815 54.9964C69.9696 54.9964 70.7904 54.8139 71.384 54.5824L71.1329 53.3894C70.6137 53.5888 70.0278 53.7038 69.2233 53.7038C68.1182 53.7038 67.1463 53.1732 67.113 51.9481L71.7111 51.9473ZM67.1231 50.7544C67.1897 50.0583 67.6423 49.0984 68.7141 49.0984C69.8689 49.0984 70.1556 50.1257 70.1378 50.7544H67.1231ZM72.8681 46.5454V48.0787H71.8971V49.3545H72.8852V52.5515C72.8852 53.4462 73.0526 54.0595 73.4215 54.4405C73.7392 54.7886 74.2755 55.004 74.9118 55.004C75.4644 55.004 75.917 54.9381 76.1673 54.8384L76.134 53.5297C75.9836 53.5796 75.7488 53.6125 75.4644 53.6125C74.7948 53.6125 74.577 53.1817 74.577 52.3537V49.3545H76.2355V48.0787H74.577V46.1237L72.8681 46.5454ZM77.7251 55.0293C78.3784 55.0293 78.7969 54.5486 78.7969 53.9192C78.7969 53.2568 78.3613 52.8091 77.7251 52.8091C77.1051 52.8091 76.6532 53.2729 76.6532 53.9192C76.6532 54.5479 77.0888 55.0293 77.7251 55.0293ZM81.3428 54.8637V48.0711H79.6006V54.8637H81.3428ZM80.4717 45.2375C79.8858 45.2375 79.5006 45.6361 79.5006 46.1575C79.5006 46.6711 79.8858 47.0775 80.4554 47.0775C81.0583 47.0775 81.4435 46.6788 81.4435 46.1575C81.4265 45.6438 81.0576 45.2375 80.4717 45.2375ZM85.7308 47.9208C83.6538 47.9208 82.1798 49.2962 82.1798 51.5241C82.1798 53.6938 83.6701 55.0201 85.613 55.0201C87.3552 55.0201 89.13 53.91 89.13 51.4091C89.147 49.3545 87.7737 47.93 85.73 47.93L85.7308 47.9208ZM85.6975 49.1797C86.8863 49.1797 87.356 50.3895 87.356 51.449C87.356 52.8244 86.6693 53.785 85.682 53.785C84.628 53.785 83.9739 52.7907 83.9739 51.482C83.9739 50.355 84.4598 49.1789 85.699 49.1789L85.6975 49.1797Z" fill="black"/>
</svg>
