<svg width="100" height="100" viewBox="0 0 100 100" fill="none" xmlns="http://www.w3.org/2000/svg">
<circle cx="50" cy="50" r="50" fill="#2F363C"/>
<path d="M13.622 61.4096H9.53297V57.2971H13.8444C15.4221 57.2971 16.2117 58.0021 16.2117 59.3855C16.2117 60.7351 15.3484 61.4104 13.6228 61.4104M16.5618 57.2493C16.0017 56.748 15.2176 56.4973 14.2095 56.4973L8.35327 56.5286V66.3673H9.53297L9.522 62.1788H13.8797C14.9724 62.1788 15.8325 61.9282 16.46 61.4268C17.0874 60.9255 17.4016 60.2283 17.4016 59.3385C17.4016 58.4486 17.1211 57.7514 16.561 57.2501L16.5618 57.2493ZM24.197 64.3024C24.0845 64.6244 23.8917 64.9123 23.6369 65.139C23.1081 65.656 22.3021 65.9122 21.2086 65.9122C20.2294 65.9122 19.4852 65.6615 18.9526 65.1602C18.4199 64.6589 18.1653 63.9875 18.1653 63.147C18.1653 62.7084 18.2342 62.3206 18.3713 61.9814C18.5013 61.653 18.7056 61.3592 18.9682 61.1229C19.5103 60.6294 20.2576 60.3811 21.2086 60.3811C23.3236 60.3811 24.3677 61.3031 24.3677 63.1462C24.3677 63.5849 24.3074 63.9687 24.1876 64.3009M24.4014 60.6717C23.6823 60.016 22.6178 59.6878 21.2078 59.6878C19.8761 59.6878 18.846 60.0231 18.1199 60.6928C17.4642 61.2991 17.1368 62.1169 17.1368 63.1462C17.1368 64.1685 17.4752 64.9933 18.152 65.6216C18.5256 65.96 18.9612 66.2052 19.4578 66.3563C19.9544 66.5075 20.5388 66.5913 21.2078 66.5913C22.6178 66.5913 23.6784 66.267 24.4194 65.6184C25.0751 65.0262 25.4025 64.2053 25.4025 63.1549C25.4025 62.0974 25.0712 61.2725 24.4077 60.6795L24.4014 60.6717ZM33.3314 64.586C33.3314 65.9177 32.1447 66.5725 29.772 66.5725C29.0466 66.5725 28.4356 66.5255 27.939 66.4347C27.4423 66.3438 27.0397 66.1895 26.7295 65.9772C26.4925 65.8164 26.297 65.6016 26.1592 65.3505C26.0182 65.0975 25.9266 64.763 25.8851 64.3675L26.9817 64.3573C26.9817 64.8782 27.1752 65.262 27.5614 65.5088C27.9766 65.8049 28.7105 65.9529 29.7649 65.9529C31.4232 65.9529 32.2528 65.5378 32.2528 64.7059C32.2528 64.2202 31.9747 63.8857 31.4185 63.7032C31.3057 63.6679 30.6352 63.5747 29.4054 63.4235C28.1755 63.2724 27.411 63.1361 27.1078 63.0162C26.453 62.7554 26.1255 62.2877 26.1255 61.6109C26.1135 61.3059 26.1899 61.004 26.3456 60.7414C26.5012 60.4789 26.7295 60.267 27.0029 60.1312C27.2927 59.998 27.653 59.8938 28.087 59.8194C28.521 59.745 29.0231 59.7082 29.5941 59.7082C31.8783 59.7082 33.0204 60.4249 33.0204 61.8584H31.9708C31.9708 60.8511 31.1679 60.3466 29.562 60.3466C28.745 60.3466 28.1364 60.4484 27.7345 60.6599C27.3327 60.8714 27.1313 61.1769 27.1313 61.5999C27.1313 61.9947 27.4024 62.2799 27.9444 62.4561C28.2617 62.5478 28.9902 62.6535 30.1315 62.7734C31.153 62.865 31.8533 62.9951 32.234 63.165C32.9593 63.447 33.3306 63.9249 33.3306 64.6017L33.3314 64.586ZM37.668 66.3877L37.2191 66.4503L36.9387 66.4715C36.2196 66.4715 35.701 66.3673 35.3838 66.1582C35.0665 65.949 34.9138 65.5848 34.9138 65.0615V60.573H33.6056V59.9126H34.9059L34.9161 57.7914H35.9227V59.9126H37.6758V60.584L35.9227 60.573V64.9416C35.9227 65.2667 36.001 65.4915 36.1812 65.6153C36.3614 65.7391 36.6622 65.801 37.1055 65.801C37.1682 65.8088 37.2387 65.8057 37.317 65.7931C37.3954 65.7806 37.5105 65.754 37.6656 65.7132L37.6766 66.3869L37.668 66.3877ZM44.6294 64.8899C44.35 65.1179 44.0315 65.2934 43.6894 65.4077C43.3369 65.5276 42.9327 65.5879 42.4753 65.5879C40.3697 65.5879 39.3184 64.7262 39.3184 62.9794C39.3184 62.1702 39.5879 61.5365 40.1253 61.079C40.6626 60.6216 41.4225 60.3928 42.4009 60.3928C43.3863 60.3928 44.1344 60.6231 44.6451 61.0845C45.1558 61.5459 45.4112 62.1632 45.4112 62.9379C45.4112 63.7823 45.1504 64.4262 44.6294 64.8915M46.4178 59.9095H45.4112L45.4002 61.0195C44.9569 60.5691 44.6404 60.2832 44.4493 60.1641C43.8853 59.8547 43.1568 59.6996 42.2622 59.6996C40.9517 59.6996 39.9514 59.9988 39.262 60.5973C38.6072 61.1456 38.2797 61.9423 38.2797 62.9841C38.2797 63.498 38.3628 63.9578 38.5281 64.3628C38.6933 64.7677 38.9354 65.1109 39.2526 65.3921C39.9443 65.9694 40.9211 66.2584 42.1839 66.2584C43.7004 66.2584 44.7689 65.8433 45.4112 65.0051V66.1543C45.4112 66.8867 45.1801 67.4546 44.7187 67.8556C44.2574 68.2567 43.4983 68.4588 42.4416 68.4588C41.4483 68.4588 40.7402 68.3217 40.3266 68.0483C40.0093 67.8384 39.7908 67.4734 39.6717 66.954H38.6416C38.7544 67.6786 39.0607 68.2034 39.5613 68.527C40.1394 68.8998 41.1154 69.0863 42.4894 69.0863C45.1182 69.0863 46.4327 68.1094 46.4327 66.155V59.9017L46.4178 59.9095ZM51.862 60.5636C51.5829 60.5164 51.3005 60.4918 51.0175 60.49C49.3631 60.49 48.5359 61.3971 48.5359 63.212V66.3673H47.5411L47.5301 59.9103L48.5367 59.9205V61.072H48.5892C48.7584 60.6176 49.0255 60.273 49.3921 60.0396C49.7932 59.8046 50.3916 59.6988 51.1875 59.6988H51.8635V60.5628L51.862 60.5636ZM52.7988 62.7303C52.9257 61.9963 53.2109 61.4284 53.6542 61.0258C53.9441 60.7931 54.2707 60.6184 54.6365 60.5009C55.0023 60.3834 55.4152 60.3262 55.8726 60.3262C56.7672 60.3262 57.4973 60.5714 58.0644 61.0626C58.6315 61.5537 58.9221 62.1091 58.9221 62.7311H52.8067M59.0208 60.7391C58.6528 60.3765 58.2031 60.1076 57.7095 59.9549C57.1878 59.785 56.5784 59.7004 55.8805 59.7004C54.5762 59.7004 53.5649 60.0035 52.8458 60.609C52.1267 61.2145 51.7672 62.0402 51.7672 63.0844C51.7672 64.1285 52.1118 64.9644 52.8027 65.5691C53.5493 66.2459 54.6028 66.5843 55.9635 66.5843C56.5056 66.5843 57.0077 66.5216 57.4691 66.4002C57.9304 66.2788 58.3339 66.1025 58.6793 65.8793C59.2856 65.4438 59.6687 64.908 59.8308 64.2688H58.7341C58.3605 65.3654 57.4315 65.9247 55.9455 65.9247C54.8958 65.9247 54.089 65.6553 53.5171 65.1148C53.0315 64.6448 52.7886 64.0526 52.7886 63.3162H59.964C59.964 62.2211 59.6506 61.3618 59.002 60.7312L59.0208 60.7391Z" fill="white"/>
<path d="M70.6172 63.7289C70.6172 65.6457 69.0709 66.6037 65.9799 66.6037C64.1273 66.6037 62.7745 66.2747 61.9222 65.6128C61.2172 65.07 60.8765 64.242 60.8765 63.1296H62.1298C62.1298 64.9196 63.4145 65.8141 65.9877 65.8141C67.2207 65.8141 68.1129 65.6308 68.662 65.2658C69.1273 64.9423 69.367 64.4355 69.367 63.7461C69.367 63.0631 69.0498 62.5844 68.4153 62.3095C68.0549 62.1528 67.1776 61.975 65.7833 61.7494C64.0286 61.4815 62.8904 61.2144 62.3695 60.9473C61.6159 60.5533 61.2384 59.8843 61.2384 58.9404C61.2384 58.0607 61.5517 57.405 62.2003 56.9758C62.8896 56.5042 64.0748 56.2684 65.7519 56.2684C68.7834 56.2684 70.2976 57.275 70.2976 59.2882H69.0349C69.0349 57.7803 67.9092 57.0267 65.6665 57.0267C64.5385 57.0267 63.7129 57.1787 63.1912 57.481C62.6977 57.8053 62.451 58.28 62.451 58.9083C62.451 59.5639 62.7682 60.0253 63.4027 60.2932C63.7395 60.4483 64.7344 60.6629 66.3841 60.9387C67.9351 61.1713 68.9808 61.4423 69.5174 61.7533C70.2577 62.134 70.6274 62.7928 70.6274 63.7305L70.6172 63.7289ZM80.7285 64.7081C80.2595 65.0827 79.7251 65.3672 79.1524 65.547C78.5665 65.7334 77.9108 65.8267 77.1847 65.8267C75.6963 65.8267 74.5057 65.435 73.5923 64.6282C72.6789 63.8213 72.2215 62.7662 72.2215 61.4369C72.2215 60.0504 72.6742 58.9717 73.5806 58.1978C74.4869 57.4238 75.6956 57.0369 77.1839 57.0369C78.7004 57.0369 79.8927 57.4411 80.7598 58.251C81.2181 58.6451 81.5565 59.1127 81.7758 59.6336C81.9951 60.1545 82.1048 60.7616 82.1048 61.4376C82.1048 62.8163 81.6458 63.9067 80.7293 64.7088M81.3912 65.3614C82.0398 64.9039 82.5192 64.343 82.8302 63.6983C83.1411 63.0537 83.2962 62.2883 83.2962 61.4439C83.2962 59.9164 82.7886 58.6913 81.7734 57.7622C81.2306 57.2554 80.5749 56.8786 79.8151 56.6327C79.0553 56.3867 78.1701 56.2629 77.1831 56.2629C75.2663 56.2629 73.7615 56.7275 72.6688 57.6573C71.576 58.5871 71.03 59.8467 71.03 61.4376C71.03 62.9863 71.5807 64.2357 72.675 65.1859C73.7693 66.1361 75.2835 66.6116 77.1933 66.6116C77.9398 66.6116 78.5915 66.5606 79.1485 66.4604C79.7054 66.3601 80.177 66.2042 80.5648 65.9951L82.404 67.2696L83.1717 66.5646L81.3912 65.3567V65.3614ZM92.6163 66.3664H84.1109V56.516L85.2804 56.4948V65.5423H92.6281L92.6171 66.3648L92.6163 66.3664Z" fill="#367FAF"/>
<path d="M55.8085 48.5854C55.9628 47.3008 55.9166 47.1128 56.8738 47.3211L57.1088 47.3423C57.8452 47.376 58.8063 47.2248 59.3727 46.9616C60.5892 46.3976 61.3106 45.4544 60.1114 45.702C57.3744 46.266 57.1864 45.3401 57.1864 45.3401C60.0769 41.0521 61.2832 35.6087 60.2414 34.2771C57.3979 30.6424 52.4739 32.3618 52.3924 32.4065L52.3665 32.4112C51.826 32.2991 51.2205 32.231 50.5414 32.2208C49.3037 32.2004 48.3637 32.5451 47.643 33.0864C47.643 33.0864 38.8603 29.4674 39.2614 37.6376C39.3475 39.375 41.7524 50.7866 44.6194 47.3399C45.6675 46.0788 46.6795 45.0134 46.6795 45.0134C47.1824 45.3479 47.7762 45.5179 48.4162 45.4568L48.4648 45.4153C48.4501 45.5789 48.4567 45.7437 48.4843 45.9056C47.7457 46.7305 47.9626 46.877 46.4868 47.1801C44.993 47.488 45.8704 48.0363 46.4438 48.1797C47.1386 48.3536 48.7468 48.5995 49.8317 47.0791L49.7886 47.253C50.0784 47.4848 50.0588 48.9191 50.0996 49.9437C50.1403 50.9683 50.2092 51.9256 50.4184 52.4896C50.6275 53.0536 50.8727 54.5059 52.8154 54.0899C54.4369 53.7421 55.6777 53.2423 55.7905 48.5886" fill="#231F20"/>
<path d="M55.8085 48.5854C55.9628 47.3008 55.9166 47.1128 56.8738 47.3211L57.1088 47.3423C57.8452 47.376 58.8063 47.2248 59.3727 46.9616C60.5892 46.3976 61.3106 45.4544 60.1114 45.702C57.3744 46.266 57.1864 45.3401 57.1864 45.3401C60.0769 41.0521 61.2832 35.6087 60.2414 34.2771C57.3979 30.6424 52.4739 32.3618 52.3924 32.4065L52.3665 32.4112C51.826 32.2991 51.2205 32.231 50.5414 32.2208C49.3037 32.2004 48.3637 32.5451 47.643 33.0864C47.643 33.0864 38.8603 29.4674 39.2614 37.6376C39.3475 39.375 41.7524 50.7866 44.6194 47.3399C45.6675 46.0788 46.6795 45.0134 46.6795 45.0134C47.1824 45.3479 47.7762 45.5179 48.4162 45.4568L48.4648 45.4153C48.4501 45.5789 48.4567 45.7437 48.4843 45.9056C47.7457 46.7305 47.9626 46.877 46.4868 47.1801C44.993 47.488 45.8704 48.0363 46.4438 48.1797C47.1386 48.3536 48.7468 48.5995 49.8317 47.0791L49.7886 47.253C50.0784 47.4848 50.0588 48.9191 50.0996 49.9437C50.1403 50.9683 50.2092 51.9256 50.4184 52.4896C50.6275 53.0536 50.8727 54.5059 52.8154 54.0899C54.4369 53.7421 55.6777 53.2423 55.7905 48.5886" stroke="#231F20" stroke-width="2.598"/>
<path d="M60.1175 45.702C57.3805 46.266 57.1925 45.3401 57.1925 45.3401C60.083 41.0522 61.2894 35.6088 60.2475 34.2763C57.404 30.6417 52.48 32.3611 52.3985 32.4057L52.3719 32.4104C51.8314 32.2984 51.2259 32.2303 50.5467 32.2201C49.3091 32.1997 48.3691 32.5444 47.6484 33.0857C47.6484 33.0857 38.8657 29.4667 39.2667 37.6368C39.3529 39.3758 41.7577 50.7859 44.6247 47.3392C45.6728 46.078 46.6849 45.0127 46.6849 45.0127C47.1878 45.3472 47.7894 45.5172 48.4208 45.4561L48.4701 45.4145C48.4545 45.5712 48.4623 45.724 48.4897 45.9049C47.751 46.7298 47.968 46.8762 46.4922 47.1794C44.9984 47.4872 45.8757 48.0356 46.4491 48.1789C47.1439 48.3528 48.7521 48.5988 49.837 47.0783L49.794 47.2522C50.0838 47.4841 50.2875 48.7602 50.2522 49.9156C50.217 51.071 50.1958 51.8661 50.4245 52.4865C50.6533 53.1069 50.8789 54.5028 52.8215 54.0868C54.443 53.739 55.2843 52.8382 55.4011 51.3358C55.4841 50.2673 55.6721 50.4255 55.6831 49.4714L55.8335 49.0194C56.0074 47.5703 55.8609 47.1042 56.8596 47.322L57.0946 47.3431C57.831 47.3768 58.7929 47.2256 59.3585 46.9624C60.575 46.3984 61.2964 45.4553 60.0971 45.7028L60.1175 45.702Z" fill="#417BA2"/>
<path d="M49.9687 46.5324C49.8935 49.227 49.9875 51.9397 50.2507 52.5993C50.5139 53.2589 51.0787 54.542 53.0206 54.1252C54.6421 53.7774 55.2327 53.1045 55.4881 51.6186L56.0873 46.8692M47.65 33.0254C47.65 33.0254 38.861 29.433 39.2684 37.6016C39.3467 39.3406 41.7594 50.7514 44.6264 47.3047C45.6745 46.0514 46.6215 45.0566 46.6215 45.0566M52.3892 32.3697C52.0759 32.4653 57.2772 30.4717 60.2288 34.2497C61.2706 35.5814 60.0721 41.0255 57.1738 45.3135" stroke="white" stroke-width="0.866" stroke-linecap="round" stroke-linejoin="round"/>
<path d="M57.1731 45.3064C57.1731 45.3064 57.3611 46.2331 60.0989 45.6683C61.2974 45.4208 60.5689 46.3632 59.3602 46.9279C58.3622 47.3901 56.125 47.51 56.0874 46.87C55.9934 45.2171 57.2656 45.72 57.1731 45.3064ZM57.1731 45.3064C57.0901 44.9336 56.5214 44.5678 56.1454 43.656C55.8164 42.8593 51.6412 36.7532 57.3047 37.6603C57.5123 37.6172 55.8274 32.2733 50.5273 32.1864C45.2273 32.0994 45.4028 38.7037 45.4028 38.7037" stroke="white" stroke-width="0.866" stroke-linecap="round" stroke-linejoin="bevel"/>
<path d="M48.4851 45.8705C47.7464 46.6953 47.9634 46.8418 46.4876 47.145C44.9938 47.4528 45.8711 48.0012 46.4445 48.1445C47.1393 48.3184 48.7475 48.5644 49.8324 47.0439C50.163 46.5818 49.8309 45.8423 49.3765 45.6535C49.1572 45.5626 48.8635 45.4498 48.4867 45.8705H48.4851Z" stroke="white" stroke-width="0.866" stroke-linejoin="round"/>
<path d="M48.4366 45.8564C48.3621 45.3707 48.5964 44.7942 48.8462 44.1174C49.2222 43.1037 50.0996 42.0901 49.3969 38.8753C48.8799 36.4799 45.4035 38.3763 45.4019 38.7014C45.4004 39.0265 45.5586 40.348 45.344 41.8872C45.062 43.8957 46.6208 45.5947 48.417 45.4201" stroke="white" stroke-width="0.866" stroke-linecap="round" stroke-linejoin="round"/>
<path d="M47.6092 38.6535C47.5935 38.7647 47.8129 39.0608 48.0972 39.1C48.3816 39.1391 48.626 38.9081 48.6408 38.7976C48.6557 38.6872 48.4372 38.5642 48.152 38.5234C47.8669 38.4827 47.6233 38.5415 47.6084 38.6527L47.6092 38.6535Z" fill="white" stroke="white" stroke-width="0.289"/>
<path d="M56.2837 38.4272C56.2994 38.5384 56.08 38.8345 55.7957 38.8737C55.5113 38.9128 55.2669 38.6817 55.2513 38.5713C55.2356 38.4608 55.4549 38.3379 55.7401 38.2987C56.0252 38.2595 56.2688 38.3167 56.2845 38.4279L56.2837 38.4272Z" fill="white" stroke="white" stroke-width="0.144"/>
<path d="M57.303 37.6597C57.35 38.5292 57.115 39.1229 57.086 40.0488C57.0421 41.3962 57.7283 42.937 56.6943 44.4802" stroke="white" stroke-width="0.866" stroke-linecap="round" stroke-linejoin="round"/>
</svg>
